{
  "accessors": [
    {
      "bufferView": 2,
      "componentType": 5126,
      "count": 65532,
      "max": [
        3.6345500946044922,
        0.99368000030517578,
        2.4134900569915771
      ],
      "min": [
        -1.7418099641799927,
        -5.412600040435791,
        -1.1785099506378174
      ],
      "type": "VEC3"
    },
    {
      "bufferView": 2,
      "byteOffset": 786384,
      "componentType": 5126,
      "count": 65532,
      "max": [
        0.99998801946640015,
        0.99982774257659912,
        0.99999421834945679
      ],
      "min": [
        -0.99999946355819702,
        -0.99999767541885376,
        -0.99999243021011353
      ],
      "type": "VEC3"
    },
    {
      "bufferView": 3,
      "componentType": 5126,
      "count": 65532,
      "max": [
        1,
        0.99987465143203735,
        0.99994534254074097,
        1
      ],
      "min": [
        -0.99999696016311646,
        -0.99999886751174927,
        -0.99999785423278809,
        1
      ],
      "type": "VEC4"
    },
    {
      "bufferView": 1,
      "componentType": 5126,
      "count": 65532,
      "max": [
        0.94559997320175171,
        0.96847999095916748
      ],
      "min": [
        0.12354999780654907,
        0.00023999999393709004
      ],
      "type": "VEC2"
    },
    {
      "bufferView": 0,
      "componentType": 5125,
      "count": 354867,
      "max": [
        65531
      ],
      "min": [
        0
      ],
      "type": "SCALAR"
    },
    {
      "bufferView": 2,
      "byteOffset": 1572768,
      "componentType": 5126,
      "count": 65532,
      "max": [
        3.6371700763702393,
        0.9843599796295166,
        2.3445000648498535
      ],
      "min": [
        -3.0331900119781494,
        -5.5029001235961914,
        -1.1724100112915039
      ],
      "type": "VEC3"
    },
    {
      "bufferView": 2,
      "byteOffset": 2359152,
      "componentType": 5126,
      "count": 65532,
      "max": [
        0.9999733567237854,
        0.9999430775642395,
        0.99999958276748657
      ],
      "min": [
        -0.99999815225601196,
        -0.99999481439590454,
        -0.99999362230300903
      ],
      "type": "VEC3"
    },
    {
      "bufferView": 3,
      "byteOffset": 1048512,
      "componentType": 5126,
      "count": 65532,
      "max": [
        1,
        0.99999940395355225,
        0.99994832277297974,
        1
      ],
      "min": [
        -0.99993163347244263,
        -0.99969685077667236,
        -0.99999785423278809,
        1
      ],
      "type": "VEC4"
    },
    {
      "bufferView": 1,
      "byteOffset": 524256,
      "componentType": 5126,
      "count": 65532,
      "max": [
        0.94527000188827515,
        0.9685099720954895
      ],
      "min": [
        0.00023999999393709004,
        0.022900000214576721
      ],
      "type": "VEC2"
    },
    {
      "bufferView": 0,
      "byteOffset": 1419468,
      "componentType": 5125,
      "count": 334674,
      "max": [
        65531
      ],
      "min": [
        0
      ],
      "type": "SCALAR"
    },
    {
      "bufferView": 2,
      "byteOffset": 3145536,
      "componentType": 5126,
      "count": 62287,
      "max": [
        9.9999997473787516e-06,
        0.98440998792648315,
        2.4134900569915771
      ],
      "min": [
        -3.6371700763702393,
        -5.5029001235961914,
        -1.1785099506378174
      ],
      "type": "VEC3"
    },
    {
      "bufferView": 2,
      "byteOffset": 3892980,
      "componentType": 5126,
      "count": 62287,
      "max": [
        0.99999946355819702,
        0.9999430775642395,
        0.99999958276748657
      ],
      "min": [
        -0.9999733567237854,
        -0.99999767541885376,
        -0.99997454881668091
      ],
      "type": "VEC3"
    },
    {
      "bufferView": 3,
      "byteOffset": 2097024,
      "componentType": 5126,
      "count": 62287,
      "max": [
        1,
        0.99997043609619141,
        0.99999898672103882,
        1
      ],
      "min": [
        -0.99999219179153442,
        -0.99971127510070801,
        -0.99998819828033447,
        1
      ],
      "type": "VEC4"
    },
    {
      "bufferView": 1,
      "byteOffset": 1048512,
      "componentType": 5126,
      "count": 62287,
      "max": [
        0.9997599720954895,
        0.96460998058319092
      ],
      "min": [
        0.00023999999393709004,
        0.019139999523758888
      ],
      "type": "VEC2"
    },
    {
      "bufferView": 0,
      "byteOffset": 2758164,
      "componentType": 5125,
      "count": 345273,
      "max": [
        62286
      ],
      "min": [
        0
      ],
      "type": "SCALAR"
    },
    {
      "bufferView": 2,
      "byteOffset": 4640424,
      "componentType": 5126,
      "count": 1153,
      "max": [
        0.97626000642776489,
        0.97626000642776489,
        5.6111598014831543
      ],
      "min": [
        -0.97626000642776489,
        -0.97626000642776489,
        -0.99800002574920654
      ],
      "type": "VEC3"
    },
    {
      "bufferView": 2,
      "byteOffset": 4654260,
      "componentType": 5126,
      "count": 1153,
      "max": [
        0.99999994039535522,
        0.99999994039535522,
        1
      ],
      "min": [
        -0.99999994039535522,
        -0.99999994039535522,
        -1
      ],
      "type": "VEC3"
    },
    {
      "bufferView": 3,
      "byteOffset": 3093616,
      "componentType": 5126,
      "count": 1153,
      "max": [
        0.99998939037322998,
        0.39545896649360657,
        0.90641224384307861,
        1
      ],
      "min": [
        -0.99998915195465088,
        -0.99999105930328369,
        -0.91852468252182007,
        1
      ],
      "type": "VEC4"
    },
    {
      "bufferView": 0,
      "byteOffset": 4139256,
      "componentType": 5125,
      "count": 5952,
      "max": [
        1152
      ],
      "min": [
        0
      ],
      "type": "SCALAR"
    }
  ],
  "asset": {
    "extras": {
      "author": "JuanG3D (https://sketchfab.com/juang3d)",
      "license": "CC-BY-4.0 (http://creativecommons.org/licenses/by/4.0/)",
      "source": "https://sketchfab.com/models/ca2443168ad944d78c6940fb12502746",
      "title": "しんちゃん Shin Chan"
    },
    "generator": "Sketchfab-3.18.2",
    "version": "2.0"
  },
  "bufferViews": [
    {
      "buffer": 0,
      "byteLength": 4163064,
      "byteOffset": 0,
      "name": "floatBufferViews",
      "target": 34963
    },
    {
      "buffer": 0,
      "byteLength": 1546808,
      "byteOffset": 4163064,
      "byteStride": 8,
      "name": "floatBufferViews",
      "target": 34962
    },
    {
      "buffer": 0,
      "byteLength": 4668096,
      "byteOffset": 5709872,
      "byteStride": 12,
      "name": "floatBufferViews",
      "target": 34962
    },
    {
      "buffer": 0,
      "byteLength": 3112064,
      "byteOffset": 10377968,
      "byteStride": 16,
      "name": "floatBufferViews",
      "target": 34962
    }
  ],
  "buffers": [
    {
      "byteLength": 13490032,
      "uri": "scene.bin"
    }
  ],
  "images": [
    {
      "uri": "textures/Text_baseColor.jpeg"
    }
  ],
  "materials": [
    {
      "doubleSided": true,
      "emissiveFactor": [
        0,
        0,
        0
      ],
      "name": "Sphere",
      "pbrMetallicRoughness": {
        "baseColorFactor": [
          1,
          1,
          1,
          1
        ],
        "metallicFactor": 0.20000000000000001,
        "roughnessFactor": 0.27000000000000002
      }
    },
    {
      "doubleSided": true,
      "emissiveFactor": [
        0,
        0,
        0
      ],
      "name": "Text",
      "pbrMetallicRoughness": {
        "baseColorFactor": [
          1,
          1,
          1,
          1
        ],
        "baseColorTexture": {
          "index": 0,
          "texCoord": 0
        },
        "metallicFactor": 0,
        "roughnessFactor": 1
      }
    }
  ],
  "meshes": [
    {
      "name": "ShinChan3",
      "primitives": [
        {
          "attributes": {
            "NORMAL": 1,
            "POSITION": 0,
            "TANGENT": 2,
            "TEXCOORD_0": 3
          },
          "indices": 4,
          "material": 1,
          "mode": 4
        }
      ]
    },
    {
      "name": "ShinChan3",
      "primitives": [
        {
          "attributes": {
            "NORMAL": 6,
            "POSITION": 5,
            "TANGENT": 7,
            "TEXCOORD_0": 8
          },
          "indices": 9,
          "material": 1,
          "mode": 4
        }
      ]
    },
    {
      "name": "ShinChan3",
      "primitives": [
        {
          "attributes": {
            "NORMAL": 11,
            "POSITION": 10,
            "TANGENT": 12,
            "TEXCOORD_0": 13
          },
          "indices": 14,
          "material": 1,
          "mode": 4
        }
      ]
    },
    {
      "name": "Sphere",
      "primitives": [
        {
          "attributes": {
            "NORMAL": 16,
            "POSITION": 15,
            "TANGENT": 17
          },
          "indices": 18,
          "material": 0,
          "mode": 4
        }
      ]
    }
  ],
  "nodes": [
    {
      "children": [
        1
      ],
      "name": "RootNode (gltf orientation matrix)",
      "rotation": [
        -0.70710678118654746,
        -0,
        -0,
        0.70710678118654757
      ]
    },
    {
      "children": [
        2
      ],
      "name": "RootNode (model correction matrix)"
    },
    {
      "children": [
        3,
        7
      ],
      "name": "Root"
    },
    {
      "children": [
        4,
        5,
        6
      ],
      "matrix": [
        1,
        0,
        0,
        0,
        0,
        -0,
        1,
        0,
        0,
        -1,
        -0,
        0,
        0,
        0,
        0,
        1
      ],
      "name": "ShinChan3"
    },
    {
      "mesh": 0,
      "name": "ShinChan3"
    },
    {
      "mesh": 1,
      "name": "ShinChan3"
    },
    {
      "mesh": 2,
      "name": "ShinChan3"
    },
    {
      "children": [
        8
      ],
      "matrix": [
        0.08450000000000002,
        -0.049810000000000014,
        0.040070000000000008,
        0,
        0.082830000000000015,
        0.15923000000000004,
        0.023290000000000005,
        0,
        -0.071170000000000011,
        0.012760000000000002,
        0.16592000000000004,
        0,
        1.2732999999999999,
        -0.46597000000000005,
        -0.53530999999999995,
        1
      ],
      "name": "Sphere"
    },
    {
      "mesh": 3,
      "name": "Sphere"
    }
  ],
  "samplers": [
    {
      "magFilter": 9729,
      "minFilter": 9987,
      "wrapS": 10497,
      "wrapT": 10497
    }
  ],
  "scene": 0,
  "scenes": [
    {
      "name": "OSG_Scene",
      "nodes": [
        0
      ]
    }
  ],
  "textures": [
    {
      "sampler": 0,
      "source": 0
    }
  ]
}

